<svg xmlns="http://www.w3.org/2000/svg" version="1.1" xmlns:xlink="http://www.w3.org/1999/xlink" xmlns:svgjs="http://svgjs.com/svgjs" width="1920" height="1080" preserveAspectRatio="none" viewBox="0 0 1920 1080">
    <g mask="url(&quot;#SvgjsMask1964&quot;)" fill="none">
        <rect width="1920" height="1080" x="0" y="0" fill="url(#SvgjsLinearGradient1965)"></rect>
        <path d="M1920 0L1591.6399999999999 0L1920 22.05z" fill="rgba(255, 255, 255, .1)"></path>
        <path d="M1591.6399999999999 0L1920 22.05L1920 330.24L1266.4799999999998 0z" fill="rgba(255, 255, 255, .075)"></path>
        <path d="M1266.48 0L1920 330.24L1920 646.11L691.82 0z" fill="rgba(255, 255, 255, .05)"></path>
        <path d="M691.8200000000002 0L1920 646.11L1920 811.9300000000001L235.25000000000017 0z" fill="rgba(255, 255, 255, .025)"></path>
        <path d="M0 1080L580.09 1080L0 618.49z" fill="rgba(0, 0, 0, .1)"></path>
        <path d="M0 618.49L580.09 1080L1239.69 1080L0 279.08z" fill="rgba(0, 0, 0, .075)"></path>
        <path d="M0 279.0799999999999L1239.69 1080L1255.1000000000001 1080L0 221.84999999999994z" fill="rgba(0, 0, 0, .05)"></path>
        <path d="M0 221.8499999999999L1255.1000000000001 1080L1405.96 1080L0 127.92999999999991z" fill="rgba(0, 0, 0, .025)"></path>
    </g>
    <defs>
        <mask id="SvgjsMask1964">
            <rect width="1920" height="1080" fill="#ffffff"></rect>
        </mask>
        <linearGradient x1="10.94%" y1="-19.44%" x2="89.06%" y2="119.44%" gradientUnits="userSpaceOnUse" id="SvgjsLinearGradient1965">
            <stop stop-color="rgba(0, 0, 0, 1)" offset="0"></stop>
            <stop stop-color="rgba(11, 12, 11, 0.9803921568627451)" offset="0.42"></stop>
        </linearGradient>
    </defs>
</svg>