<svg xmlns="http://www.w3.org/2000/svg" version="1.1" xmlns:xlink="http://www.w3.org/1999/xlink" xmlns:svgjs="http://svgjs.com/svgjs" width="1920" height="1080" preserveAspectRatio="none" viewBox="0 0 1920 1080"><g mask="url(&quot;#SvgjsMask1264&quot;)" fill="none"><rect width="1920" height="1080" x="0" y="0" fill="rgb(7, 7, 7)"></rect><path d="M0,582.592C106.43,567.97,195.361,500.862,277.031,431.068C350.203,368.536,386.299,279.72,444.294,202.902C521.99,99.988,683.873,31.529,675.828,-97.169C667.962,-223.002,489.842,-257.666,409.434,-354.777C326.302,-455.178,324.912,-644.597,197.985,-674.275C68.858,-704.468,-17.621,-529.623,-142.034,-483.722C-253.802,-442.486,-392.367,-494.506,-486.651,-421.685C-585.181,-345.585,-625.397,-215.605,-647.748,-93.132C-670.676,32.503,-673.927,167.567,-614.852,280.793C-556.943,391.784,-443.07,459.399,-330.688,514.561C-227.576,565.173,-113.795,598.226,0,582.592" fill="rgba(9, 9, 9, 0.98)"></path><path d="M1920 1629.0819999999999C2022.882 1624.321 2114.52 1573.167 2201.781 1518.46 2289.907 1463.21 2376.082 1402.266 2426.709 1311.406 2479.757 1216.201 2514.024 1104.492 2491.909 997.772 2470.253 893.271 2391.934 810.066 2308.919 743 2234.978 683.264 2140.02 668.0509999999999 2049.169 640.091 1956.988 611.722 1868.596 568.8109999999999 1772.581 577.9390000000001 1664.405 588.223 1545.958 612.11 1475.279 694.6469999999999 1404.672 777.101 1404.9279999999999 897.5409999999999 1405.944 1006.09 1406.85 1102.885 1444.915 1190.676 1480.7640000000001 1280.592 1518.51 1375.266 1541.1 1481.9940000000001 1620.943 1545.342 1703.715 1611.0140000000001 1814.453 1633.967 1920 1629.0819999999999" fill="rgba(13, 13, 13, 0.98)"></path></g><defs><mask id="SvgjsMask1264"><rect width="1920" height="1080" fill="#ffffff"></rect></mask></defs></svg>